<?xml version="1.0" encoding="utf-8" ?>
<svg baseProfile="full" height="390.0mm" version="1.1" viewBox="0 0 330.0 390.0" width="330.0mm" xmlns="http://www.w3.org/2000/svg" xmlns:ev="http://www.w3.org/2001/xml-events" xmlns:xlink="http://www.w3.org/1999/xlink"><defs /><line stroke="rgb(0,0,0)" x1="0" x2="330.0" y1="0" y2="0" /><line stroke="rgb(0,0,0)" x1="0" x2="0" y1="0" y2="390.0" /><line stroke="rgb(0,0,0)" x1="330.0" x2="330.0" y1="0" y2="390.0" /><line stroke="rgb(0,0,0)" x1="0" x2="330.0" y1="390.0" y2="390.0" /><g style="fill:none;fill-opacity:1;stroke:rgb(0,0,0);stroke-width:0.2822222222;stroke-linecap:butt;stroke-linejoin:miter;stroke-opacity:1;text-anchor:middle;font-family:Phantom Stencil;font-size:22"><rect height="6" stroke="rgb(0,0,0)" width="6" x="27" y="32" /><rect height="6" stroke="rgb(0,0,0)" width="6" x="57" y="32" /><rect height="6" stroke="rgb(0,0,0)" width="6" x="87" y="32" /><rect height="6" stroke="rgb(0,0,0)" width="6" x="117" y="32" /><rect height="6" stroke="rgb(0,0,0)" width="6" x="147" y="32" /><rect height="6" stroke="rgb(0,0,0)" width="6" x="177" y="32" /><rect height="6" stroke="rgb(0,0,0)" width="6" x="207" y="32" /><rect height="6" stroke="rgb(0,0,0)" width="6" x="237" y="32" /><rect height="6" stroke="rgb(0,0,0)" width="6" x="267" y="32" /><rect height="6" stroke="rgb(0,0,0)" width="6" x="297" y="32" /><rect height="6" stroke="rgb(0,0,0)" width="6" x="27" y="65" /><rect height="6" stroke="rgb(0,0,0)" width="6" x="57" y="65" /><rect height="6" stroke="rgb(0,0,0)" width="6" x="87" y="65" /><rect height="6" stroke="rgb(0,0,0)" width="6" x="117" y="65" /><rect height="6" stroke="rgb(0,0,0)" width="6" x="147" y="65" /><rect height="6" stroke="rgb(0,0,0)" width="6" x="177" y="65" /><rect height="6" stroke="rgb(0,0,0)" width="6" x="207" y="65" /><rect height="6" stroke="rgb(0,0,0)" width="6" x="237" y="65" /><rect height="6" stroke="rgb(0,0,0)" width="6" x="267" y="65" /><rect height="6" stroke="rgb(0,0,0)" width="6" x="297" y="65" /><rect height="6" stroke="rgb(0,0,0)" width="6" x="27" y="98" /><rect height="6" stroke="rgb(0,0,0)" width="6" x="57" y="98" /><rect height="6" stroke="rgb(0,0,0)" width="6" x="87" y="98" /><rect height="6" stroke="rgb(0,0,0)" width="6" x="117" y="98" /><rect height="6" stroke="rgb(0,0,0)" width="6" x="147" y="98" /><rect height="6" stroke="rgb(0,0,0)" width="6" x="177" y="98" /><rect height="6" stroke="rgb(0,0,0)" width="6" x="207" y="98" /><rect height="6" stroke="rgb(0,0,0)" width="6" x="237" y="98" /><rect height="6" stroke="rgb(0,0,0)" width="6" x="267" y="98" /><rect height="6" stroke="rgb(0,0,0)" width="6" x="297" y="98" /><rect height="6" stroke="rgb(0,0,0)" width="6" x="27" y="131" /><rect height="6" stroke="rgb(0,0,0)" width="6" x="57" y="131" /><rect height="6" stroke="rgb(0,0,0)" width="6" x="87" y="131" /><rect height="6" stroke="rgb(0,0,0)" width="6" x="117" y="131" /><rect height="6" stroke="rgb(0,0,0)" width="6" x="147" y="131" /><rect height="6" stroke="rgb(0,0,0)" width="6" x="177" y="131" /><rect height="6" stroke="rgb(0,0,0)" width="6" x="207" y="131" /><rect height="6" stroke="rgb(0,0,0)" width="6" x="237" y="131" /><rect height="6" stroke="rgb(0,0,0)" width="6" x="267" y="131" /><rect height="6" stroke="rgb(0,0,0)" width="6" x="297" y="131" /><rect height="6" stroke="rgb(0,0,0)" width="6" x="27" y="164" /><rect height="6" stroke="rgb(0,0,0)" width="6" x="57" y="164" /><rect height="6" stroke="rgb(0,0,0)" width="6" x="87" y="164" /><rect height="6" stroke="rgb(0,0,0)" width="6" x="117" y="164" /><rect height="6" stroke="rgb(0,0,0)" width="6" x="147" y="164" /><rect height="6" stroke="rgb(0,0,0)" width="6" x="177" y="164" /><rect height="6" stroke="rgb(0,0,0)" width="6" x="207" y="164" /><rect height="6" stroke="rgb(0,0,0)" width="6" x="237" y="164" /><rect height="6" stroke="rgb(0,0,0)" width="6" x="267" y="164" /><rect height="6" stroke="rgb(0,0,0)" width="6" x="297" y="164" /><rect height="6" stroke="rgb(0,0,0)" width="6" x="27" y="197" /><rect height="6" stroke="rgb(0,0,0)" width="6" x="57" y="197" /><rect height="6" stroke="rgb(0,0,0)" width="6" x="87" y="197" /><rect height="6" stroke="rgb(0,0,0)" width="6" x="117" y="197" /><rect height="6" stroke="rgb(0,0,0)" width="6" x="147" y="197" /><rect height="6" stroke="rgb(0,0,0)" width="6" x="177" y="197" /><rect height="6" stroke="rgb(0,0,0)" width="6" x="207" y="197" /><rect height="6" stroke="rgb(0,0,0)" width="6" x="237" y="197" /><rect height="6" stroke="rgb(0,0,0)" width="6" x="267" y="197" /><rect height="6" stroke="rgb(0,0,0)" width="6" x="297" y="197" /><rect height="6" stroke="rgb(0,0,0)" width="6" x="27" y="230" /><rect height="6" stroke="rgb(0,0,0)" width="6" x="57" y="230" /><rect height="6" stroke="rgb(0,0,0)" width="6" x="87" y="230" /><rect height="6" stroke="rgb(0,0,0)" width="6" x="117" y="230" /><rect height="6" stroke="rgb(0,0,0)" width="6" x="147" y="230" /><rect height="6" stroke="rgb(0,0,0)" width="6" x="177" y="230" /><rect height="6" stroke="rgb(0,0,0)" width="6" x="207" y="230" /><rect height="6" stroke="rgb(0,0,0)" width="6" x="237" y="230" /><rect height="6" stroke="rgb(0,0,0)" width="6" x="267" y="230" /><rect height="6" stroke="rgb(0,0,0)" width="6" x="297" y="230" /><rect height="6" stroke="rgb(0,0,0)" width="6" x="27" y="263" /><rect height="6" stroke="rgb(0,0,0)" width="6" x="57" y="263" /><rect height="6" stroke="rgb(0,0,0)" width="6" x="87" y="263" /><rect height="6" stroke="rgb(0,0,0)" width="6" x="117" y="263" /><rect height="6" stroke="rgb(0,0,0)" width="6" x="147" y="263" /><rect height="6" stroke="rgb(0,0,0)" width="6" x="177" y="263" /><rect height="6" stroke="rgb(0,0,0)" width="6" x="207" y="263" /><rect height="6" stroke="rgb(0,0,0)" width="6" x="237" y="263" /><rect height="6" stroke="rgb(0,0,0)" width="6" x="267" y="263" /><rect height="6" stroke="rgb(0,0,0)" width="6" x="297" y="263" /><rect height="6" stroke="rgb(0,0,0)" width="6" x="27" y="296" /><rect height="6" stroke="rgb(0,0,0)" width="6" x="57" y="296" /><rect height="6" stroke="rgb(0,0,0)" width="6" x="87" y="296" /><rect height="6" stroke="rgb(0,0,0)" width="6" x="117" y="296" /><rect height="6" stroke="rgb(0,0,0)" width="6" x="147" y="296" /><rect height="6" stroke="rgb(0,0,0)" width="6" x="177" y="296" /><rect height="6" stroke="rgb(0,0,0)" width="6" x="207" y="296" /><rect height="6" stroke="rgb(0,0,0)" width="6" x="237" y="296" /><rect height="6" stroke="rgb(0,0,0)" width="6" x="267" y="296" /><rect height="6" stroke="rgb(0,0,0)" width="6" x="297" y="296" /><rect height="6" stroke="rgb(0,0,0)" width="6" x="27" y="329" /><rect height="6" stroke="rgb(0,0,0)" width="6" x="57" y="329" /><rect height="6" stroke="rgb(0,0,0)" width="6" x="87" y="329" /><rect height="6" stroke="rgb(0,0,0)" width="6" x="117" y="329" /><rect height="6" stroke="rgb(0,0,0)" width="6" x="147" y="329" /><rect height="6" stroke="rgb(0,0,0)" width="6" x="177" y="329" /><rect height="6" stroke="rgb(0,0,0)" width="6" x="207" y="329" /><rect height="6" stroke="rgb(0,0,0)" width="6" x="237" y="329" /><rect height="6" stroke="rgb(0,0,0)" width="6" x="267" y="329" /><rect height="6" stroke="rgb(0,0,0)" width="6" x="297" y="329" /><rect height="6" stroke="rgb(0,0,0)" width="6" x="27" y="362" /><rect height="6" stroke="rgb(0,0,0)" width="6" x="57" y="362" /><rect height="6" stroke="rgb(0,0,0)" width="6" x="87" y="362" /><rect height="6" stroke="rgb(0,0,0)" width="6" x="117" y="362" /><rect height="6" stroke="rgb(0,0,0)" width="6" x="147" y="362" /><rect height="6" stroke="rgb(0,0,0)" width="6" x="177" y="362" /><rect height="6" stroke="rgb(0,0,0)" width="6" x="207" y="362" /><rect height="6" stroke="rgb(0,0,0)" width="6" x="237" y="362" /><rect height="6" stroke="rgb(0,0,0)" width="6" x="267" y="362" /><rect height="6" stroke="rgb(0,0,0)" width="6" x="297" y="362" /></g></svg>