<?xml version="1.0" encoding="utf-8"?>
<!-- Generator: Adobe Illustrator 18.1.1, SVG Export Plug-In . SVG Version: 6.00 Build 0)  -->
<svg version="1.1" id="Layer_1" xmlns:ev="http://www.w3.org/2001/xml-events"
	 xmlns="http://www.w3.org/2000/svg" xmlns:xlink="http://www.w3.org/1999/xlink" x="0px" y="0px"
	 viewBox="119.5 -199 1020.5 1190.6" enable-background="new 119.5 -199 1020.5 1190.6" xml:space="preserve">
<line fill="none" stroke="#000000" stroke-width="2.834646e-003" x1="162" y1="-156.5" x2="1097.4" y2="-156.5"/>
<line fill="none" stroke="#000000" stroke-width="2.834646e-003" x1="162" y1="-156.5" x2="162" y2="949"/>
<line fill="none" stroke="#000000" stroke-width="2.834646e-003" x1="1097.4" y1="-156.5" x2="1097.4" y2="949"/>
<line fill="none" stroke="#000000" stroke-width="2.834646e-003" x1="162" y1="949" x2="1097.4" y2="949"/>
<g enable-background="new    ">
	<path fill="none" stroke="#000000" stroke-width="2.834646e-003" d="M243.6-85.8h5.8h0.9h1.2h0.9v2.7v0.7v3.9v0.9v3v4.1v0.7v0.9
		v4.5v0.7v0.9v2.7v0.7v3.9v4.5v0.7v0.9v0.7v1.1v0.7v3.2v1.8v1.8h-5.8h-0.9h-1.2h-0.9V-85.8z"/>
</g>
<g enable-background="new    ">
	<path fill="none" stroke="#000000" stroke-width="2.834646e-003" d="M315.8-85.8h3.5h0.7h4.2h1h1h1h1h2.7h4.5h1h1.5h1.2h1.5h1.7
		l6.2,0.1v7.4h-32.8V-85.8z M328.5-72.5h4.6h1h0.8h1v2.6v0.7v3.7v0.9v0.9v0.9v0.9v2.4v3.9v0.9v1.3v1.1v1.3v3.7v1.3v1.5v1.3v1.5v1.3
		h-4.6h-1h-0.8h-1V-72.5z"/>
</g>
<g enable-background="new    ">
	<path fill="none" stroke="#000000" stroke-width="2.834646e-003" d="M412.5-72.8l2.3,9.1l-6.4,23.4h-8.3l10.4-33.5L412.5-72.8z
		 M423.5-50h-5.8l0-7l4.2,0.1l-3.4-14.5l-1.5-6l-4.2-2.3l1.4-6.2h8.8l10.9,45.7l-7.9,0L423.5-50z"/>
</g>
<g enable-background="new    ">
	<path fill="none" stroke="#000000" stroke-width="2.834646e-003" d="M498.7-85.8h5.8h0.9h1.2h0.9v2.7v0.7v3.9v0.9v3v4.1v0.7v0.9
		v4.5v0.7v0.9v2.7v0.7v3.9v4.5v0.7v0.9v0.7v1.1v0.7v3.2v1.8v1.8h-5.8h-0.9h-1.2h-0.9V-85.8z"/>
</g>
<g enable-background="new    ">
	<path fill="none" stroke="#000000" stroke-width="2.834646e-003" d="M583.5-86.1v4.4v3.4c-2.4,0.4-3.8,1.5-4.1,3.4s0.3,3.5,1.8,4.9
		c1.5,1.5,4.3,2.8,8.4,4.1l7.1,2.7c4.9,2.6,7.2,6.2,6.9,10.8c-0.9,6.1-5.2,10.2-12.9,12.1v-7.5c2.7-0.8,4.3-2.2,4.9-4.3
		c0.6-2.3-0.6-4.3-3.7-5.9l-6.2-2.1c-4.6-1.5-7.8-3-9.7-4.6c-4.2-3.1-5.8-7.1-4.8-12C572.3-81.5,576.4-84.7,583.5-86.1z M571.2-53.9
		l8.3,0c0.4,2.6,2.1,4.7,5,6.2l0.1,7.5C575.7-42.4,571.3-46.9,571.2-53.9z M590.2-85.9c8,1.1,12.3,5.7,12.7,13.8h-7.8
		c-0.3-3.6-1.9-5.7-4.9-6.1V-85.9z"/>
</g>
<g enable-background="new    ">
	<path fill="none" stroke="#000000" stroke-width="2.834646e-003" d="M668.6-85.5l2.2-0.3v4.2v1v0.8v0.7v0.8
		c-4.4,0.7-6.6,5.9-6.6,15.4c-0.1,9.8,2,15,6.2,15.3l0,6.5l0,0.8c-9.8-1.7-14.4-8.5-13.7-20.4C656.3-75.6,660.3-83.8,668.6-85.5z
		 M681.2-57.5h7c0.4,9.3-2.9,14.8-9.7,16.7l-2.1,0.5v-7.3C679.8-48.9,681.4-52.2,681.2-57.5z M676.5-85.8c7.9,1,11.8,6.7,11.5,17.3
		h-6.6c0-5.9-1.7-9.1-4.9-9.6L676.5-85.8z"/>
</g>
<g enable-background="new    ">
	<path fill="none" stroke="#000000" stroke-width="2.834646e-003" d="M752.7-72.8l2.3,9.1l-6.4,23.4h-8.3l10.4-33.5L752.7-72.8z
		 M763.6-50h-5.8l0-7l4.2,0.1l-3.4-14.5l-1.5-6l-4.2-2.3l1.4-6.2h8.8L774-40.2l-7.9,0L763.6-50z"/>
</g>
<g enable-background="new    ">
	<path fill="none" stroke="#000000" stroke-width="2.834646e-003" d="M825.8-40.3v-26.8h1.9l6.5,10.8v15.9H825.8L825.8-40.3z
		 M833.5-86l10.4,18.3v8.1h-4.6l-9.4-15.6l-4.2-2.6l0.1-8.2H833.5z M850.1-40.2h8.6v-45.7h-8.3l-4.4,8.5l4,7.1v30.2V-40.2z"/>
</g>
<g enable-background="new    ">
	<path fill="none" stroke="#000000" stroke-width="2.834646e-003" d="M911.8-86.1h7.6v2.9v0.7v3.8v0.9v2.9v1.1v2.5v2.7v0.7v3.8v0.9
		v2.9v2.7v0.7v3.8v1.3v4.5v0.7v0.9v0.7v1.1v0.7v0.9v1.8h-7.6L911.8-86.1z M926.9-85.9c9.8-0.1,15,4.1,15.7,12.5
		c-0.3,8.5-5.6,12.8-15.8,12.7v-6.9c5.4-0.5,7.9-2.1,7.7-4.8c0.5-4.2-2.1-6.4-7.7-6.7V-85.9z"/>
</g>
<g enable-background="new    ">
	<path fill="none" stroke="#000000" stroke-width="2.834646e-003" d="M995.9-40.3v-26.8h1.9l6.5,10.8v15.9H995.9L995.9-40.3z
		 M1003.6-86l10.4,18.3v8.1h-4.6l-9.4-15.6l-4.2-2.6l0.1-8.2H1003.6z M1020.2-40.2h8.6v-45.7h-8.3l-4.4,8.5l4,7.1v30.2V-40.2z"/>
</g>
<g enable-background="new    ">
	<path fill="none" stroke="#000000" stroke-width="2.834646e-003" d="M232.2,7.6h7.9v2.7V11v3.9v0.9v3v4.1v0.7v3.2h9.3v6.9h-6h-1
		h-0.8h-1h-0.7v7.1v0.7v4.1v0.7v4.6v0.7v0.9v0.9h-5.1H234h-1h-0.7V7.6z M246.3,7.6h3.3h0.8h4.8h1.1h3.6h1.4h1.1l1.4,0v4.5V13v0.7
		v0.9H262h-2.3H255h-1.1h-3.6h-1.4h-1.1h-1.4V7.6z"/>
</g>
<g enable-background="new    ">
	<path fill="none" stroke="#000000" stroke-width="2.834646e-003" d="M329.4,7.7l-0.1,7.2c-4.1,0.8-6.3,3.6-6.6,8.4l0,14.7
		c-0.1,4.3,2,7.1,6.3,8.3v6.9c-8.2-0.6-12.4-5.8-12.9-15.6V23C316.4,14.5,320.8,9.4,329.4,7.7z M334.6,7.8c8.8,1.8,13.3,7.2,13.3,16
		v13.7c-0.1,9.5-4.6,14.7-13.5,15.8l-0.1-6.9c4-0.7,6.4-3,7-7l0-16c0-4.8-2.2-7.7-6.8-8.6L334.6,7.8z"/>
</g>
<g enable-background="new    ">
	<path fill="none" stroke="#000000" stroke-width="2.834646e-003" d="M401.5,7.6h7.7v45.7h-7.7V7.6z M416.2,7.6
		c6.9-0.4,11.9,2.1,14.9,7.3c2.5,5.2,1.4,10-3.1,14.4c3.5,1.6,5.1,6.2,4.8,13.6v10.4h-7.5v-8.2c0.2-4.8-0.5-8-1.9-9.8
		c-1.5-1.7-3.9-2.7-7.3-2.7v-6.9c5.5-0.4,8.2-2,8.2-5c-0.2-3.8-2.9-5.7-8.2-5.6V7.6z"/>
</g>
<g enable-background="new    ">
	<path fill="none" stroke="#000000" stroke-width="2.834646e-003" d="M487.3,7.6l7.4,0l-0.1,5v0.7v0.9v0.7V16v0.7v3.2v6.9l4.8,0v7.4
		h-4.5v2.7v0.7v3.8v0.9v2.5v3.8v0.9v3.8h-7.5V7.6z M510,7.6h7.7v45.7h-7.4V34.2l-5-0.1v-7.3h4.7V7.6z"/>
</g>
<g enable-background="new    ">
	<path fill="none" stroke="#000000" stroke-width="2.834646e-003" d="M582.6,20.8l2.3,9.1l-6.4,23.4h-8.3l10.4-33.5L582.6,20.8z
		 M593.5,43.6h-5.8l0-7l4.2,0.1l-3.4-14.5l-1.5-6l-4.2-2.3l1.4-6.2h8.8l10.9,45.7l-7.9,0L593.5,43.6z"/>
</g>
<g enable-background="new    ">
	<path fill="none" stroke="#000000" stroke-width="2.834646e-003" d="M656.6,7.8h5h0.8h1h0.8v2.7v0.7v3.9V16v0.9v0.9v0.9v2.5v4.1
		v0.9v1.4v1.1V30v1.6V33v1.6v7.1v0.7V43v1.6v1.6V48v4.6v0.7h-5h-0.8h-1h-0.7V7.8z M670.7,45h3.1h0.8h4.3h1h2.8h4.3h1v8.3h-17.1
		L670.7,45z"/>
</g>
<g enable-background="new    ">
	<path fill="none" stroke="#000000" stroke-width="2.834646e-003" d="M742.4,7.6h7.9v2.7V11v3.9v0.9v3v4.1v0.7v3.2h9.3v6.9h-6h-1
		h-0.8h-1h-0.7v7.1v0.7v4.1v0.7v4.6v0.7v0.9v0.9H745h-0.8h-1h-0.7V7.6z M756.5,7.6h3.3h0.8h4.8h1.1h3.6h1.4h1.1l1.4,0v4.5V13v0.7
		v0.9h-1.9h-2.3h-4.8h-1.1h-3.6h-1.4h-1.1h-1.4V7.6z"/>
</g>
<g enable-background="new    ">
	<path fill="none" stroke="#000000" stroke-width="2.834646e-003" d="M826,7.7h3.5h0.7h4.2h1h1h1h1h2.7h4.5h1h1.5h1.2h1.5h1.7
		l6.2,0.1v7.4H826V7.7z M838.7,21.1h4.6h1h0.8h1v2.6v0.7v3.7v0.9v0.9v0.9v0.9V34v3.9v0.9v1.3v1.1v1.3v3.7v1.3V49v1.3v1.5v1.3h-4.6
		h-1h-0.8h-1V21.1z"/>
</g>
<g enable-background="new    ">
	<path fill="none" stroke="#000000" stroke-width="2.834646e-003" d="M911.9,7.7h5.1h0.8h1h0.8v4.6V13v0.9v0.7v1.2v0.7v3.2v7.1h5.1
		h0.8h1h0.7v2.7v0.7V34h-5.1h-0.8h-1h-0.8v2.7v0.7v3.9v0.9v3v4.1V50v3.2h-5.1h-0.8h-1h-0.8V7.7z M927.2,45.8h8.4h0.8h4.6h0.8h1.2
		l0.1,5.2v2.2H938h-0.8h-0.9l-0.8,0l-1.3,0h-2.9h-4V45.8z M927.3,7.7h8.6h0.7h4.6h0.8h1v5.2v1.9h-1.8h-2h-4.3h-1h-1h-1h-1h-3.5V7.7z
		"/>
</g>
<g enable-background="new    ">
	<path fill="none" stroke="#000000" stroke-width="2.834646e-003" d="M996.5,27.7h2.6l5.8,8.6l0,17l-8.4,0V27.7z M996.6,13.8v-6h6.6
		l25.2,39.4l-0.1,6.1h-6.6L996.6,13.8z M1020,7.8h8.6l0.1,22.7h-3.7l-4.8-7.4L1020,7.8z"/>
</g>
<g enable-background="new    ">
	<path fill="none" stroke="#000000" stroke-width="2.834646e-003" d="M230.7,101.2h3.5h0.7h4.2h1h1h1h1h2.7h4.5h1h1.5h1.2h1.5h1.7
		l6.2,0.1v7.4h-32.8V101.2z M243.4,114.6h4.6h1h0.8h1v2.6v0.7v3.7v0.9v0.9v0.9v0.9v2.4v3.9v0.9v1.3v1.1v1.3v3.7v1.3v1.5v1.3v1.5v1.3
		h-4.6h-1h-0.8h-1V114.6z"/>
</g>
<g enable-background="new    ">
	<path fill="none" stroke="#000000" stroke-width="2.834646e-003" d="M324.6,126.5l3.5,7.8l-3.1,12.6h-5.7l-4.7-45.6l6.8,0
		L324.6,126.5z M335.9,146.7h6.8l1.7-10.7l-5-3l-6.9-31.8H329l-1.2,9L335.9,146.7z M348.9,101.3l-3,23.6h-1.7l-2.1-3l-2-8l1.5-12.7
		L348.9,101.3z"/>
</g>
<g enable-background="new    ">
	<path fill="none" stroke="#000000" stroke-width="2.834646e-003" d="M401.7,101.2h5.1h0.8h1h0.8v4.6v0.7v0.9v0.7v1.2v0.7v3.2v7.1
		h5.1h0.8h1h0.7v2.7v0.7v3.9h-5.1h-0.8h-1h-0.8v2.7v0.7v3.9v0.9v3v4.1v0.7v3.2h-5.1h-0.8h-1h-0.8V101.2z M417,139.3h8.4h0.8h4.6h0.8
		h1.2l0.1,5.2v2.2h-5.1h-0.8H426l-0.8,0l-1.3,0H421h-4V139.3z M417.1,101.2h8.6h0.7h4.6h0.8h1v5.2v1.9H431h-2h-4.3h-1h-1h-1h-1h-3.5
		V101.2z"/>
</g>
<g enable-background="new    ">
	<path fill="none" stroke="#000000" stroke-width="2.834646e-003" d="M486.2,121.2h2.6l5.8,8.6l0,17l-8.4,0V121.2z M486.4,107.3v-6
		h6.6l25.2,39.4l-0.1,6.1h-6.6L486.4,107.3z M509.7,101.3h8.6l0.1,22.7h-3.7l-4.8-7.4L509.7,101.3z"/>
</g>
<g enable-background="new    ">
	<path fill="none" stroke="#000000" stroke-width="2.834646e-003" d="M570.9,101.2h3.5h0.7h4.2h1h1h1h1h2.7h4.5h1h1.5h1.2h1.5h1.7
		l6.2,0.1v7.4h-32.8V101.2z M583.6,114.6h4.6h1h0.8h1v2.6v0.7v3.7v0.9v0.9v0.9v0.9v2.4v3.9v0.9v1.3v1.1v1.3v3.7v1.3v1.5v1.3v1.5v1.3
		h-4.6h-1h-0.8h-1V114.6z"/>
</g>
<g enable-background="new    ">
	<path fill="none" stroke="#000000" stroke-width="2.834646e-003" d="M656.3,101h8.5l11.6,21.9l-0.1,23.8H668l-0.2-22.9L656.3,101z
		 M679.4,101l8.6,0l-8.2,15.3l-4.4-7.8L679.4,101z"/>
</g>
<g enable-background="new    ">
	<path fill="none" stroke="#000000" stroke-width="2.834646e-003" d="M742.4,101.1h7.9v2.7v0.7v3.9v0.9v3v4.1v0.7v3.2h9.3v6.9h-6h-1
		h-0.8h-1h-0.7v7.1v0.7v4.1v0.7v4.6v0.7v0.9v0.9H745h-0.8h-1h-0.7V101.1z M756.5,101.1h3.3h0.8h4.8h1.1h3.6h1.4h1.1l1.4,0v4.5v0.9
		v0.7v0.9h-1.9h-2.3h-4.8h-1.1h-3.6h-1.4h-1.1h-1.4V101.1z"/>
</g>
<g enable-background="new    ">
	<path fill="none" stroke="#000000" stroke-width="2.834646e-003" d="M838.9,101.3h5.8h0.9h1.2h0.9v2.7v0.7v3.9v0.9v3v4.1v0.7v0.9
		v4.5v0.7v0.9v2.7v0.7v3.9v4.5v0.7v0.9v0.7v1.1v0.7v3.2v1.8v1.8h-5.8h-0.9h-1.2h-0.9V101.3z"/>
</g>
<g enable-background="new    ">
	<path fill="none" stroke="#000000" stroke-width="2.834646e-003" d="M923.5,146.7l-11.9-45.6h8.2l11.8,45.6H923.5z M935.2,101.2h8
		l-7.4,28.5h-1.6l-3.4-11.5L935.2,101.2z"/>
</g>
<g enable-background="new    ">
	<path fill="none" stroke="#000000" stroke-width="2.834646e-003" d="M997,101.2h5.1h0.8h1h0.8v4.6v0.7v0.9v0.7v1.2v0.7v3.2v7.1h5.1
		h0.8h1h0.7v2.7v0.7v3.9h-5.1h-0.8h-1h-0.8v2.7v0.7v3.9v0.9v3v4.1v0.7v3.2h-5.1h-0.8h-1H997V101.2z M1012.3,139.3h8.4h0.8h4.6h0.8
		h1.2l0.1,5.2v2.2h-5.1h-0.8h-0.9l-0.8,0l-1.3,0h-2.9h-4V139.3z M1012.3,101.2h8.6h0.7h4.6h0.8h1v5.2v1.9h-1.8h-2h-4.3h-1h-1h-1h-1
		h-3.5V101.2z"/>
</g>
<g enable-background="new    ">
	<path fill="none" stroke="#000000" stroke-width="2.834646e-003" d="M244.6,194.8l0,6.8c-5.1,0.4-7.6,5.8-7.3,16.2
		c0.2,3.4,0.5,6.6,1.1,9.6c0.6,3,2.6,4.8,6.1,5.5v7.6c-9.5-2.1-14-9.2-13.6-21.2v-6.5C230.7,202.4,235.3,196.4,244.6,194.8z
		 M249.5,194.8c8.4,1.1,12.9,6.2,13.5,15.1v15c-0.1,2.4-1,4.9-2.8,7.6c2.4,2.1,3.3,4.7,2.9,7.9h-4.9l-1.7-2.4
		c-1.8,1.3-3.9,2.1-6.2,2.4l-0.1-7.5c1.3-0.8,1.5-1.8,0.7-3l-1.5-2v-2.6c4-0.5,6.3-2.1,6.9-4.6l0-6c0.2-7.9-2.1-12.3-6.8-13.1V194.8
		z"/>
</g>
<g enable-background="new    ">
	<path fill="none" stroke="#000000" stroke-width="2.834646e-003" d="M316.3,194.6h7.7v3.7v3.8v0.9v7v0.7v0.9v4.5v0.7v0.9v2.7v0.7
		v3.9c0,2.3,0.3,3.8,0.8,4.7c0.5,0.9,1.8,1.8,3.6,2.8v4.5v0.7v0.9v0.7v1.1c-4.5-1.6-7.7-3.6-9.5-5.9c-1.8-2.3-2.7-5.4-2.6-9.5V194.6
		z M339.3,194.7h8.1v2.7v0.7v3.9v0.9v2.9v4.1v0.7v0.9v4.5v0.7v0.9v1.2v1.3v1.1v3.7c0.6,9.3-3.9,14.5-13.3,15.6v-8
		c3.8-0.7,5.5-3.1,5.2-7.3V194.7z"/>
</g>
<g enable-background="new    ">
	<path fill="none" stroke="#000000" stroke-width="2.834646e-003" d="M412.5,207.8l2.3,9.1l-6.4,23.4h-8.3l10.4-33.5L412.5,207.8z
		 M423.5,230.7h-5.8l0-7l4.2,0.1l-3.4-14.5l-1.5-6l-4.2-2.3l1.4-6.2h8.8l10.9,45.7l-7.9,0L423.5,230.7z"/>
</g>
<g enable-background="new    ">
	<path fill="none" stroke="#000000" stroke-width="2.834646e-003" d="M486.5,194.7h7.7v45.7h-7.7V194.7z M501.2,194.7
		c6.9-0.4,11.9,2.1,14.9,7.3c2.5,5.2,1.4,10-3.1,14.4c3.5,1.6,5.1,6.2,4.8,13.6v10.4h-7.5v-8.2c0.2-4.8-0.5-8-1.9-9.8
		c-1.5-1.7-3.9-2.7-7.3-2.7v-6.9c5.5-0.4,8.2-2,8.2-5c-0.2-3.8-2.9-5.7-8.2-5.6V194.7z"/>
</g>
<g enable-background="new    ">
	<path fill="none" stroke="#000000" stroke-width="2.834646e-003" d="M570.9,194.8h3.5h0.7h4.2h1h1h1h1h2.7h4.5h1h1.5h1.2h1.5h1.7
		l6.2,0.1v7.4h-32.8V194.8z M583.6,208.2h4.6h1h0.8h1v2.6v0.7v3.7v0.9v0.9v0.9v0.9v2.4v3.9v0.9v1.3v1.1v1.3v3.7v1.3v1.5v1.3v1.5v1.3
		h-4.6h-1h-0.8h-1V208.2z"/>
</g>
<g enable-background="new    ">
	<path fill="none" stroke="#000000" stroke-width="2.834646e-003" d="M656.8,194.8h5.1h0.8h1h0.8v4.6v0.7v0.9v0.7v1.2v0.7v3.2v7.1
		h5.1h0.8h1h0.7v2.7v0.7v3.9H667h-0.8h-1h-0.8v2.7v0.7v3.9v0.9v3v4.1v0.7v3.2h-5.1h-0.8h-1h-0.8V194.8z M672.1,232.9h8.4h0.8h4.6
		h0.8h1.2l0.1,5.2v2.2h-5.1h-0.8h-0.9l-0.8,0l-1.3,0h-2.9h-4V232.9z M672.2,194.8h8.6h0.7h4.6h0.8h1v5.2v1.9h-1.8h-2h-4.3h-1h-1h-1
		h-1h-3.5V194.8z"/>
</g>
<g enable-background="new    ">
	<path fill="none" stroke="#000000" stroke-width="2.834646e-003" d="M741.6,194.7h7.7v45.7h-7.7V194.7z M756.4,194.7
		c6.9-0.4,11.9,2.1,14.9,7.3c2.5,5.2,1.4,10-3.1,14.4c3.5,1.6,5.1,6.2,4.8,13.6v10.4h-7.5v-8.2c0.2-4.8-0.5-8-1.9-9.8
		c-1.5-1.7-3.9-2.7-7.3-2.7v-6.9c5.5-0.4,8.2-2,8.2-5c-0.2-3.8-2.9-5.7-8.2-5.6V194.7z"/>
</g>
<g enable-background="new    ">
	<path fill="none" stroke="#000000" stroke-width="2.834646e-003" d="M838.6,194.6v4.4v3.4c-2.4,0.4-3.8,1.5-4.1,3.4
		s0.3,3.5,1.8,4.9c1.5,1.5,4.3,2.8,8.4,4.1l7.1,2.7c4.9,2.6,7.2,6.2,6.9,10.8c-0.9,6.1-5.2,10.2-12.9,12.1v-7.5
		c2.7-0.8,4.3-2.2,4.9-4.3c0.6-2.3-0.6-4.3-3.7-5.9l-6.2-2.1c-4.6-1.5-7.8-3-9.7-4.6c-4.2-3.1-5.8-7.1-4.8-12
		C827.4,199.1,831.5,196,838.6,194.6z M826.3,226.7l8.3,0c0.4,2.6,2.1,4.7,5,6.2l0.1,7.5C830.8,238.3,826.4,233.7,826.3,226.7z
		 M845.3,194.7c8,1.1,12.3,5.7,12.7,13.8h-7.8c-0.3-3.6-1.9-5.7-4.9-6.1V194.7z"/>
</g>
<g enable-background="new    ">
	<path fill="none" stroke="#000000" stroke-width="2.834646e-003" d="M911.1,194.8h3.5h0.7h4.2h1h1h1h1h2.7h4.5h1h1.5h1.2h1.5h1.7
		l6.2,0.1v7.4h-32.8V194.8z M923.7,208.2h4.6h1h0.8h1v2.6v0.7v3.7v0.9v0.9v0.9v0.9v2.4v3.9v0.9v1.3v1.1v1.3v3.7v1.3v1.5v1.3v1.5v1.3
		h-4.6h-1h-0.8h-1V208.2z"/>
</g>
<g enable-background="new    ">
	<path fill="none" stroke="#000000" stroke-width="2.834646e-003" d="M1009.7,194.8l-0.1,7.2c-4.1,0.8-6.3,3.6-6.6,8.4l0,14.7
		c-0.1,4.3,2,7.1,6.3,8.3v6.9c-8.2-0.6-12.4-5.8-12.9-15.6v-14.6C996.7,201.5,1001.1,196.5,1009.7,194.8z M1014.9,194.9
		c8.8,1.8,13.3,7.2,13.3,16v13.7c-0.1,9.5-4.6,14.7-13.5,15.8l-0.1-6.9c4-0.7,6.4-3,7-7l0-16c0-4.8-2.2-7.7-6.8-8.6L1014.9,194.9z"
		/>
</g>
<g enable-background="new    ">
	<path fill="none" stroke="#000000" stroke-width="2.834646e-003" d="M231.5,288.1h7.6v2.9v0.7v3.8v0.9v2.9v1.1v2.5v2.7v0.7v3.8v0.9
		v2.9v2.7v0.7v3.8v1.3v4.5v0.7v0.9v0.7v1.1v0.7v0.9v1.8h-7.6L231.5,288.1z M246.6,288.3c9.8-0.1,15,4,15.7,12.5
		c-0.3,8.5-5.6,12.8-15.8,12.7v-6.9c5.4-0.5,7.9-2.1,7.7-4.8c0.5-4.2-2.1-6.4-7.7-6.7V288.3z"/>
</g>
<g enable-background="new    ">
	<path fill="none" stroke="#000000" stroke-width="2.834646e-003" d="M327.5,301.4l2.3,9.1l-6.4,23.4h-8.3l10.4-33.5L327.5,301.4z
		 M338.4,324.2h-5.8l0-7l4.2,0.1l-3.4-14.5l-1.5-6l-4.2-2.3l1.4-6.2h8.8l10.9,45.7l-7.9,0L338.4,324.2z"/>
</g>
<g enable-background="new    ">
	<path fill="none" stroke="#000000" stroke-width="2.834646e-003" d="M413.4,288.1v4.4v3.4c-2.4,0.4-3.8,1.5-4.1,3.4
		s0.3,3.5,1.8,4.9c1.5,1.5,4.3,2.8,8.5,4.1l7.1,2.7c4.9,2.6,7.2,6.2,6.9,10.8c-0.9,6.1-5.2,10.2-12.9,12.1v-7.5
		c2.7-0.8,4.3-2.2,4.9-4.3c0.6-2.3-0.6-4.3-3.7-5.9l-6.2-2.1c-4.6-1.5-7.8-3-9.7-4.6c-4.2-3.1-5.8-7.1-4.8-12
		C402.2,292.6,406.3,289.5,413.4,288.1z M401.1,320.3l8.3,0c0.4,2.6,2.1,4.7,5,6.2l0.1,7.5C405.6,331.8,401.2,327.3,401.1,320.3z
		 M420.1,288.3c8,1.1,12.3,5.7,12.7,13.8H425c-0.3-3.6-1.9-5.7-4.9-6.1V288.3z"/>
</g>
<g enable-background="new    ">
	<path fill="none" stroke="#000000" stroke-width="2.834646e-003" d="M485.9,288.3h3.5h0.7h4.2h1h1h1h1h2.7h4.5h1h1.5h1.2h1.5h1.7
		l6.2,0.1v7.4h-32.8V288.3z M498.5,301.7h4.6h1h0.8h1v2.6v0.7v3.7v0.9v0.9v0.9v0.9v2.4v3.9v0.9v1.3v1.1v1.3v3.7v1.3v1.5v1.3v1.5v1.3
		h-4.6h-1h-0.8h-1V301.7z"/>
</g>
<g enable-background="new    ">
	<path fill="none" stroke="#000000" stroke-width="2.834646e-003" d="M584.5,288.3l-0.1,7.2c-4.1,0.8-6.3,3.6-6.6,8.4l0,14.7
		c-0.1,4.3,2,7.1,6.3,8.3v6.9c-8.2-0.6-12.4-5.8-12.9-15.6v-14.6C571.5,295.1,575.9,290,584.5,288.3z M589.7,288.5
		c8.8,1.8,13.3,7.2,13.3,16v13.7c-0.1,9.5-4.6,14.7-13.5,15.8l-0.1-6.9c4-0.7,6.4-3,7-7l0-16c0-4.8-2.2-7.7-6.8-8.6L589.7,288.5z"/>
</g>
<g enable-background="new    ">
	<path fill="none" stroke="#000000" stroke-width="2.834646e-003" d="M655.9,288.3h3.5h0.7h4.2h1h1h1h1h2.7h4.5h1h1.5h1.2h1.5h1.7
		l6.2,0.1v7.4h-32.8V288.3z M668.6,301.7h4.6h1h0.8h1v2.6v0.7v3.7v0.9v0.9v0.9v0.9v2.4v3.9v0.9v1.3v1.1v1.3v3.7v1.3v1.5v1.3v1.5v1.3
		h-4.6h-1h-0.8h-1V301.7z"/>
</g>
<g enable-background="new    ">
	<path fill="none" stroke="#000000" stroke-width="2.834646e-003" d="M742.4,288.3l7.4,0l-0.1,5v0.7v0.9v0.7v1.1v0.7v3.2v6.9l4.8,0
		v7.4h-4.5v2.7v0.7v3.8v0.9v2.5v3.8v0.9v3.8h-7.5V288.3z M765.1,288.3h7.7v45.7h-7.4v-19.1l-5-0.1v-7.3h4.7V288.3z"/>
</g>
<g enable-background="new    ">
	<path fill="none" stroke="#000000" stroke-width="2.834646e-003" d="M826.7,288.3h7.7v45.7h-7.7V288.3z M841.4,288.2
		c6.9-0.4,11.9,2.1,14.9,7.3c2.5,5.2,1.4,10-3.1,14.4c3.5,1.6,5.1,6.2,4.8,13.6V334h-7.5v-8.2c0.2-4.8-0.5-8-1.9-9.8
		s-3.9-2.7-7.3-2.7v-6.9c5.5-0.4,8.2-2,8.2-5c-0.2-3.8-2.9-5.7-8.2-5.6V288.2z"/>
</g>
<g enable-background="new    ">
	<path fill="none" stroke="#000000" stroke-width="2.834646e-003" d="M911.9,288.3h5.1h0.8h1h0.8v4.6v0.7v0.9v0.7v1.2v0.7v3.2v7.1
		h5.1h0.8h1h0.7v2.7v0.7v3.9h-5.1h-0.8h-1h-0.8v2.7v0.7v3.9v0.9v3v4.1v0.7v3.2h-5.1h-0.8h-1h-0.8V288.3z M927.2,326.4h8.4h0.8h4.6
		h0.8h1.2l0.1,5.2v2.2H938h-0.8h-0.9l-0.8,0l-1.3,0h-2.9h-4V326.4z M927.3,288.3h8.6h0.7h4.6h0.8h1v5.2v1.9h-1.8h-2h-4.3h-1h-1h-1
		h-1h-3.5V288.3z"/>
</g>
<g enable-background="new    ">
	<path fill="none" stroke="#000000" stroke-width="2.834646e-003" d="M997,288.3h5.1h0.8h1h0.8v4.6v0.7v0.9v0.7v1.2v0.7v3.2v7.1h5.1
		h0.8h1h0.7v2.7v0.7v3.9h-5.1h-0.8h-1h-0.8v2.7v0.7v3.9v0.9v3v4.1v0.7v3.2h-5.1h-0.8h-1H997V288.3z M1012.3,326.4h8.4h0.8h4.6h0.8
		h1.2l0.1,5.2v2.2h-5.1h-0.8h-0.9l-0.8,0l-1.3,0h-2.9h-4V326.4z M1012.3,288.3h8.6h0.7h4.6h0.8h1v5.2v1.9h-1.8h-2h-4.3h-1h-1h-1h-1
		h-3.5V288.3z"/>
</g>
<g enable-background="new    ">
	<path fill="none" stroke="#000000" stroke-width="2.834646e-003" d="M232.2,381.7h7.9v2.7v0.7v3.9v0.9v3v4.1v0.7v3.2h9.3v6.9h-6h-1
		h-0.8h-1h-0.7v7.1v0.7v4.1v0.7v4.6v0.7v0.9v0.9h-5.1H234h-1h-0.7V381.7z M246.3,381.7h3.3h0.8h4.8h1.1h3.6h1.4h1.1l1.4,0v4.5v0.9
		v0.7v0.9H262h-2.3H255h-1.1h-3.6h-1.4h-1.1h-1.4V381.7z"/>
</g>
<g enable-background="new    ">
	<path fill="none" stroke="#000000" stroke-width="2.834646e-003" d="M329.4,381.9l-0.1,7.2c-4.1,0.8-6.3,3.6-6.6,8.4l0,14.7
		c-0.1,4.3,2,7.1,6.3,8.3v6.9c-8.2-0.6-12.4-5.8-12.9-15.6v-14.6C316.4,388.6,320.8,383.5,329.4,381.9z M334.6,382
		c8.8,1.8,13.3,7.2,13.3,16v13.7c-0.1,9.5-4.6,14.7-13.5,15.8l-0.1-6.9c4-0.7,6.4-3,7-7l0-16c0-4.8-2.2-7.7-6.8-8.6L334.6,382z"/>
</g>
<g enable-background="new    ">
	<path fill="none" stroke="#000000" stroke-width="2.834646e-003" d="M401.3,381.7h7.7v3.7v3.8v0.9v7v0.7v0.9v4.5v0.7v0.9v2.7v0.7
		v3.9c0,2.3,0.3,3.8,0.8,4.7c0.5,0.9,1.8,1.8,3.6,2.8v4.5v0.7v0.9v0.7v1.1c-4.5-1.6-7.7-3.6-9.5-5.9c-1.8-2.3-2.7-5.4-2.6-9.5V381.7
		z M424.3,381.8h8.1v2.7v0.7v3.9v0.9v2.9v4.1v0.7v0.9v4.5v0.7v0.9v1.2v1.3v1.1v3.7c0.6,9.3-3.9,14.5-13.3,15.6v-8
		c3.8-0.7,5.5-3.1,5.2-7.3V381.8z"/>
</g>
<g enable-background="new    ">
	<path fill="none" stroke="#000000" stroke-width="2.834646e-003" d="M486.5,381.8h7.7v45.7h-7.7V381.8z M501.2,381.7
		c6.9-0.4,11.9,2.1,14.9,7.3c2.5,5.2,1.4,10-3.1,14.4c3.5,1.6,5.1,6.2,4.8,13.6v10.4h-7.5v-8.2c0.2-4.8-0.5-8-1.9-9.8
		s-3.9-2.7-7.3-2.7v-6.9c5.5-0.4,8.2-2,8.2-5c-0.2-3.8-2.9-5.7-8.2-5.6V381.7z"/>
</g>
<g enable-background="new    ">
	<path fill="none" stroke="#000000" stroke-width="2.834646e-003" d="M571.8,381.9h5.1h0.8h1h0.8v4.6v0.7v0.9v0.7v1.2v0.7v3.2v7.1
		h5.1h0.8h1h0.7v2.7v0.7v3.9H582h-0.8h-1h-0.8v2.7v0.7v3.9v0.9v3v4.1v0.7v3.2h-5.1h-0.8h-1h-0.8V381.9z M587.1,420h8.4h0.8h4.6h0.8
		h1.2l0.1,5.2v2.2h-5.1H597h-0.9l-0.8,0l-1.3,0h-2.9h-4V420z M587.2,381.9h8.6h0.7h4.6h0.8h1v5.2v1.9h-1.8h-2h-4.3h-1h-1h-1h-1h-3.5
		V381.9z"/>
</g>
<g enable-background="new    ">
	<path fill="none" stroke="#000000" stroke-width="2.834646e-003" d="M656.6,382h5h0.8h1h0.8v2.7v0.7v3.9v0.9v0.9v0.9v0.9v2.5v4.1
		v0.9v1.4v1.1v1.4v1.6v1.4v1.6v7.1v0.7v0.7v1.6v1.6v1.8v4.6v0.7h-5h-0.8h-1h-0.7V382z M670.7,419.1h3.1h0.8h4.3h1h2.8h4.3h1v8.3
		h-17.1L670.7,419.1z"/>
</g>
<g enable-background="new    ">
	<path fill="none" stroke="#000000" stroke-width="2.834646e-003" d="M741.9,381.9h5.1h0.8h1h0.8v4.6v0.7v0.9v0.7v1.2v0.7v3.2v7.1
		h5.1h0.8h1h0.7v2.7v0.7v3.9h-5.1h-0.8h-1h-0.8v2.7v0.7v3.9v0.9v3v4.1v0.7v3.2h-5.1h-0.8h-1h-0.8V381.9z M757.2,420h8.4h0.8h4.6h0.8
		h1.2l0.1,5.2v2.2h-5.1h-0.8h-0.9l-0.8,0l-1.3,0h-2.9h-4V420z M757.2,381.9h8.6h0.7h4.6h0.8h1v5.2v1.9h-1.8h-2h-4.3h-1h-1h-1h-1
		h-3.5V381.9z"/>
</g>
<g enable-background="new    ">
	<path fill="none" stroke="#000000" stroke-width="2.834646e-003" d="M838.5,427.4l-11.9-45.6h8.2l11.8,45.6H838.5z M850.2,381.8h8
		l-7.4,28.5h-1.6l-3.4-11.5L850.2,381.8z"/>
</g>
<g enable-background="new    ">
	<path fill="none" stroke="#000000" stroke-width="2.834646e-003" d="M911.9,381.9h5.1h0.8h1h0.8v4.6v0.7v0.9v0.7v1.2v0.7v3.2v7.1
		h5.1h0.8h1h0.7v2.7v0.7v3.9h-5.1h-0.8h-1h-0.8v2.7v0.7v3.9v0.9v3v4.1v0.7v3.2h-5.1h-0.8h-1h-0.8V381.9z M927.2,420h8.4h0.8h4.6h0.8
		h1.2l0.1,5.2v2.2H938h-0.8h-0.9l-0.8,0l-1.3,0h-2.9h-4V420z M927.3,381.9h8.6h0.7h4.6h0.8h1v5.2v1.9h-1.8h-2h-4.3h-1h-1h-1h-1h-3.5
		V381.9z"/>
</g>
<g enable-background="new    ">
	<path fill="none" stroke="#000000" stroke-width="2.834646e-003" d="M996.5,401.8h2.6l5.8,8.6l0,17l-8.4,0V401.8z M996.6,387.9v-6
		h6.6l25.2,39.4l-0.1,6.1h-6.6L996.6,387.9z M1020,382h8.6l0.1,22.7h-3.7l-4.8-7.4L1020,382z"/>
</g>
<g enable-background="new    ">
	<path fill="none" stroke="#000000" stroke-width="2.834646e-003" d="M230.7,475.4h3.5h0.7h4.2h1h1h1h1h2.7h4.5h1h1.5h1.2h1.5h1.7
		l6.2,0.1v7.4h-32.8V475.4z M243.4,488.8h4.6h1h0.8h1v2.6v0.7v3.7v0.9v0.9v0.9v0.9v2.4v3.9v0.9v1.3v1.1v1.3v3.7v1.3v1.5v1.3v1.5v1.3
		h-4.6h-1h-0.8h-1V488.8z"/>
</g>
<g enable-background="new    ">
	<path fill="none" stroke="#000000" stroke-width="2.834646e-003" d="M324.6,500.6l3.5,7.8L325,521h-5.7l-4.7-45.6l6.8,0
		L324.6,500.6z M335.9,520.9h6.8l1.7-10.7l-5-3l-6.9-31.8H329l-1.2,9L335.9,520.9z M348.9,475.5l-3,23.6h-1.7l-2.1-3l-2-8l1.5-12.7
		L348.9,475.5z"/>
</g>
<g enable-background="new    ">
	<path fill="none" stroke="#000000" stroke-width="2.834646e-003" d="M414.5,475.4l-0.1,7.2c-4.1,0.8-6.3,3.6-6.6,8.4l0,14.7
		c-0.1,4.3,2,7.1,6.3,8.3v6.9c-8.2-0.6-12.4-5.8-12.9-15.6v-14.6C401.4,482.2,405.8,477.1,414.5,475.4z M419.6,475.6
		c8.8,1.8,13.3,7.2,13.3,16v13.7c-0.1,9.5-4.6,14.7-13.5,15.8l-0.1-6.9c4-0.7,6.4-3,7-7l0-16c0-4.8-2.2-7.7-6.8-8.6L419.6,475.6z"/>
</g>
<g enable-background="new    ">
	<path fill="none" stroke="#000000" stroke-width="2.834646e-003" d="M498.5,475.8l2.2-0.3v4.2v1v0.8v0.7v0.8
		c-4.4,0.7-6.6,5.9-6.6,15.4c-0.1,9.8,2,15,6.2,15.3l0,6.5l0,0.8c-9.8-1.7-14.4-8.5-13.7-20.4C486.2,485.7,490.2,477.5,498.5,475.8z
		 M511.2,503.7h7c0.4,9.3-2.9,14.8-9.7,16.7l-2.1,0.5v-7.3C509.7,512.3,511.3,509,511.2,503.7z M506.4,475.5
		c7.9,1,11.8,6.7,11.5,17.3h-6.6c0-5.9-1.7-9.1-4.9-9.6L506.4,475.5z"/>
</g>
<g enable-background="new    ">
	<path fill="none" stroke="#000000" stroke-width="2.834646e-003" d="M571.8,475.4h5.1h0.8h1h0.8v4.6v0.7v0.9v0.7v1.2v0.7v3.2v7.1
		h5.1h0.8h1h0.7v2.7v0.7v3.9H582h-0.8h-1h-0.8v2.7v0.7v3.9v0.9v3v4.1v0.7v3.2h-5.1h-0.8h-1h-0.8V475.4z M587.1,513.5h8.4h0.8h4.6
		h0.8h1.2l0.1,5.2v2.2h-5.1H597h-0.9l-0.8,0l-1.3,0h-2.9h-4V513.5z M587.2,475.4h8.6h0.7h4.6h0.8h1v5.2v1.9h-1.8h-2h-4.3h-1h-1h-1
		h-1h-3.5V475.4z"/>
</g>
<g enable-background="new    ">
	<path fill="none" stroke="#000000" stroke-width="2.834646e-003" d="M668.8,475.5h5.8h0.9h1.2h0.9v2.7v0.7v3.9v0.9v3v4.1v0.7v0.9
		v4.5v0.7v0.9v2.7v0.7v3.9v4.5v0.7v0.9v0.7v1.1v0.7v3.2v1.8v1.8h-5.8h-0.9h-1.2h-0.9V475.5z"/>
</g>
<g enable-background="new    ">
	<path fill="none" stroke="#000000" stroke-width="2.834646e-003" d="M753.6,475.5l1.5-0.2v7.6c-4.5,1.3-6.6,6.5-6.4,15.5
		c0,8.2,2.2,13.3,6.4,15.3v7.3c-9.2-1.6-13.8-8.9-13.8-21.7c-0.3-6.4,0.4-11.6,2.1-15.6C745.8,479.1,749.2,476.3,753.6,475.5z
		 M760.7,475.3c6,1.1,9.9,4.1,11.6,9.1c0.6,2.5,0.9,4.6,0.7,6.4h-7.2c0.1-4.4-1.6-7-5.1-7.8V475.3z M761.4,500.7h11.8v2.7v0.7v3.9
		v0.9v3v4.1v0.7v3.2c-0.1,0.4-0.4,0.6-0.7,0.7c-1.3-0.2-2.4-0.9-3.4-2l-0.6-0.5l-0.6-0.3l-0.7,0.1c-1.3,1.4-3.2,2.4-5.5,3v-7.3
		c2.2-1.1,3.2-2.5,3-4.3c-0.2-1.9-1.3-2.9-3.3-3V500.7z"/>
</g>
<g enable-background="new    ">
	<path fill="none" stroke="#000000" stroke-width="2.834646e-003" d="M827.4,475.4l7.4,0l-0.1,5v0.7v0.9v0.7v1.1v0.7v3.2v6.9l4.8,0
		v7.4h-4.5v2.7v0.7v3.8v0.9v2.5v3.8v0.9v3.8h-7.5V475.4z M850.2,475.4h7.7V521h-7.4v-19.1l-5-0.1v-7.3h4.7V475.4z"/>
</g>
<g enable-background="new    ">
	<path fill="none" stroke="#000000" stroke-width="2.834646e-003" d="M911.1,475.4h3.5h0.7h4.2h1h1h1h1h2.7h4.5h1h1.5h1.2h1.5h1.7
		l6.2,0.1v7.4h-32.8V475.4z M923.7,488.8h4.6h1h0.8h1v2.6v0.7v3.7v0.9v0.9v0.9v0.9v2.4v3.9v0.9v1.3v1.1v1.3v3.7v1.3v1.5v1.3v1.5v1.3
		h-4.6h-1h-0.8h-1V488.8z"/>
</g>
<g enable-background="new    ">
	<path fill="none" stroke="#000000" stroke-width="2.834646e-003" d="M996.5,475.2h8.5l11.6,21.9l-0.1,23.8h-8.3L1008,498
		L996.5,475.2z M1019.5,475.2l8.6,0l-8.2,15.3l-4.4-7.8L1019.5,475.2z"/>
</g>
<g enable-background="new    ">
	<path fill="none" stroke="#000000" stroke-width="2.834646e-003" d="M244.4,569l-0.1,7.2c-4.1,0.8-6.3,3.6-6.6,8.4l0,14.7
		c-0.1,4.3,2,7.1,6.3,8.3v6.9c-8.2-0.6-12.4-5.8-12.9-15.6v-14.6C231.3,575.7,235.7,570.6,244.4,569z M249.6,569.1
		c8.8,1.8,13.3,7.2,13.3,16v13.7c-0.1,9.5-4.6,14.7-13.5,15.8l-0.1-6.9c4-0.7,6.4-3,7-7l0-16c0-4.8-2.2-7.7-6.8-8.6L249.6,569.1z"/>
</g>
<g enable-background="new    ">
	<path fill="none" stroke="#000000" stroke-width="2.834646e-003" d="M316.2,588.9h2.6l5.8,8.6l0,17l-8.4,0V588.9z M316.3,575v-6
		h6.6l25.2,39.4l-0.1,6.1h-6.6L316.3,575z M339.6,569h8.6l0.1,22.7h-3.7l-4.8-7.4L339.6,569z"/>
</g>
<g enable-background="new    ">
	<path fill="none" stroke="#000000" stroke-width="2.834646e-003" d="M401.7,569h5.1h0.8h1h0.8v4.6v0.7v0.9v0.7v1.2v0.7v3.2v7.1h5.1
		h0.8h1h0.7v2.7v0.7v3.9h-5.1h-0.8h-1h-0.8v2.7v0.7v3.9v0.9v3v4.1v0.7v3.2h-5.1h-0.8h-1h-0.8V569z M417,607.1h8.4h0.8h4.6h0.8h1.2
		l0.1,5.2v2.2h-5.1h-0.8H426l-0.8,0l-1.3,0H421h-4V607.1z M417.1,569h8.6h0.7h4.6h0.8h1v5.2v1.9H431h-2h-4.3h-1h-1h-1h-1h-3.5V569z"
		/>
</g>
<g enable-background="new    ">
	<path fill="none" stroke="#000000" stroke-width="2.834646e-003" d="M485.9,569h3.5h0.7h4.2h1h1h1h1h2.7h4.5h1h1.5h1.2h1.5h1.7
		l6.2,0.1v7.4h-32.8V569z M498.5,582.3h4.6h1h0.8h1v2.6v0.7v3.7v0.9v0.9v0.9v0.9v2.4v3.9v0.9v1.3v1.1v1.3v3.7v1.3v1.5v1.3v1.5v1.3
		h-4.6h-1h-0.8h-1V582.3z"/>
</g>
<g enable-background="new    ">
	<path fill="none" stroke="#000000" stroke-width="2.834646e-003" d="M571.8,569h5.1h0.8h1h0.8v4.6v0.7v0.9v0.7v1.2v0.7v3.2v7.1h5.1
		h0.8h1h0.7v2.7v0.7v3.9H582h-0.8h-1h-0.8v2.7v0.7v3.9v0.9v3v4.1v0.7v3.2h-5.1h-0.8h-1h-0.8V569z M587.1,607.1h8.4h0.8h4.6h0.8h1.2
		l0.1,5.2v2.2h-5.1H597h-0.9l-0.8,0l-1.3,0h-2.9h-4V607.1z M587.2,569h8.6h0.7h4.6h0.8h1v5.2v1.9h-1.8h-2h-4.3h-1h-1h-1h-1h-3.5V569
		z"/>
</g>
<g enable-background="new    ">
	<path fill="none" stroke="#000000" stroke-width="2.834646e-003" d="M656.3,588.9h2.6l5.8,8.6l0,17l-8.4,0V588.9z M656.4,575v-6
		h6.6l25.2,39.4l-0.1,6.1h-6.6L656.4,575z M679.8,569h8.6l0.1,22.7h-3.7l-4.8-7.4L679.8,569z"/>
</g>
<g enable-background="new    ">
	<path fill="none" stroke="#000000" stroke-width="2.834646e-003" d="M741.5,568.8h7.7v3.7v3.8v0.9v7v0.7v0.9v4.5v0.7v0.9v2.7v0.7
		v3.9c0,2.3,0.3,3.8,0.8,4.7c0.5,0.9,1.8,1.8,3.6,2.8v4.5v0.7v0.9v0.7v1.1c-4.5-1.6-7.7-3.6-9.5-5.9c-1.8-2.3-2.7-5.4-2.6-9.5V568.8
		z M764.5,568.9h8.1v2.7v0.7v3.9v0.9v2.9v4.1v0.7v0.9v4.5v0.7v0.9v1.2v1.3v1.1v3.7c0.6,9.3-3.9,14.5-13.3,15.6v-8
		c3.8-0.7,5.5-3.1,5.2-7.3V568.9z"/>
</g>
<g enable-background="new    ">
	<path fill="none" stroke="#000000" stroke-width="2.834646e-003" d="M838.6,568.7v4.4v3.4c-2.4,0.4-3.8,1.5-4.1,3.4
		s0.3,3.5,1.8,4.9c1.5,1.5,4.3,2.8,8.4,4.1l7.1,2.7c4.9,2.6,7.2,6.2,6.9,10.8c-0.9,6.1-5.2,10.2-12.9,12.1V607
		c2.7-0.8,4.3-2.2,4.9-4.3c0.6-2.3-0.6-4.3-3.7-5.9l-6.2-2.1c-4.6-1.5-7.8-3-9.7-4.6c-4.2-3.1-5.8-7.1-4.8-12
		S831.5,570.1,838.6,568.7z M826.3,600.9l8.3,0c0.4,2.6,2.1,4.7,5,6.2l0.1,7.5C830.8,612.5,826.4,607.9,826.3,600.9z M845.3,568.9
		c8,1.1,12.3,5.7,12.7,13.8h-7.8c-0.3-3.6-1.9-5.7-4.9-6.1V568.9z"/>
</g>
<g enable-background="new    ">
	<path fill="none" stroke="#000000" stroke-width="2.834646e-003" d="M923.9,569h5.8h0.9h1.2h0.9v2.7v0.7v3.9v0.9v3v4.1v0.7v0.9v4.5
		v0.7v0.9v2.7v0.7v3.9v4.5v0.7v0.9v0.7v1.1v0.7v3.2v1.8v1.8h-5.8h-0.9h-1.2h-0.9V569z"/>
</g>
<g enable-background="new    ">
	<path fill="none" stroke="#000000" stroke-width="2.834646e-003" d="M1005.5,596.3l4.2,8.2l-4.8,10.1l-8.3,0L1005.5,596.3z
		 M996.7,569h8.6l22.7,45.6h-8.7L996.7,569z M1019.8,569h8.2l-8.2,18.6l-4.8-8.5L1019.8,569z"/>
</g>
<g enable-background="new    ">
	<path fill="none" stroke="#000000" stroke-width="2.834646e-003" d="M243.3,662.3v4.4v3.4c-2.4,0.4-3.8,1.5-4.1,3.4
		s0.3,3.5,1.8,4.9c1.5,1.5,4.3,2.8,8.5,4.1l7.1,2.7c4.9,2.6,7.2,6.2,6.9,10.8c-0.9,6.1-5.2,10.2-12.9,12.1v-7.5
		c2.7-0.8,4.3-2.2,4.9-4.3c0.6-2.3-0.6-4.3-3.7-5.9l-6.2-2.1c-4.6-1.5-7.8-3-9.7-4.6c-4.2-3.1-5.8-7.1-4.8-12
		C232.1,666.8,236.2,663.7,243.3,662.3z M231.1,694.4l8.3,0c0.4,2.6,2.1,4.7,5,6.2l0.1,7.5C235.5,706,231.1,701.4,231.1,694.4z
		 M250,662.4c8,1.1,12.3,5.7,12.7,13.8h-7.8c-0.3-3.6-1.9-5.7-4.9-6.1V662.4z"/>
</g>
<g enable-background="new    ">
	<path fill="none" stroke="#000000" stroke-width="2.834646e-003" d="M316.7,662.5h5.1h0.8h1h0.8v4.6v0.7v0.9v0.7v1.2v0.7v3.2v7.1
		h5.1h0.8h1h0.7v2.7v0.7v3.9h-5.1h-0.8h-1h-0.8v2.7v0.7v3.9v0.9v3v4.1v0.7v3.2h-5.1h-0.8h-1h-0.8V662.5z M332,700.6h8.4h0.8h4.6h0.8
		h1.2l0.1,5.2v2.2h-5.1h-0.8H341l-0.8,0l-1.3,0H336h-4V700.6z M332,662.5h8.6h0.7h4.6h0.8h1v5.2v1.9H346h-2h-4.3h-1h-1h-1h-1H332
		V662.5z"/>
</g>
<g enable-background="new    ">
	<path fill="none" stroke="#000000" stroke-width="2.834646e-003" d="M413.3,708l-11.9-45.6h8.2l11.8,45.6H413.3z M425,662.4h8
		l-7.4,28.5H424l-3.4-11.5L425,662.4z"/>
</g>
<g enable-background="new    ">
	<path fill="none" stroke="#000000" stroke-width="2.834646e-003" d="M486.7,662.5h5.1h0.8h1h0.8v4.6v0.7v0.9v0.7v1.2v0.7v3.2v7.1
		h5.1h0.8h1h0.7v2.7v0.7v3.9h-5.1h-0.8h-1h-0.8v2.7v0.7v3.9v0.9v3v4.1v0.7v3.2h-5.1h-0.8h-1h-0.8V662.5z M502.1,700.6h8.4h0.8h4.6
		h0.8h1.2l0.1,5.2v2.2h-5.1H512H511l-0.8,0l-1.3,0h-2.9h-4V700.6z M502.1,662.5h8.6h0.7h4.6h0.8h1v5.2v1.9h-1.8h-2h-4.3h-1h-1h-1h-1
		h-3.5V662.5z"/>
</g>
<g enable-background="new    ">
	<path fill="none" stroke="#000000" stroke-width="2.834646e-003" d="M571.3,682.5h2.6l5.8,8.6l0,17l-8.4,0V682.5z M571.4,668.6v-6
		h6.6l25.2,39.4l-0.1,6.1h-6.6L571.4,668.6z M594.8,662.6h8.6l0.1,22.7h-3.7l-4.8-7.4L594.8,662.6z"/>
</g>
<g enable-background="new    ">
	<path fill="none" stroke="#000000" stroke-width="2.834646e-003" d="M667.6,675.6l2.3,9.1l-6.4,23.4h-8.3l10.4-33.5L667.6,675.6z
		 M678.6,698.4h-5.8l0-7l4.2,0.1l-3.4-14.5l-1.5-6l-4.2-2.3l1.4-6.2h8.8l10.9,45.7l-7.9,0L678.6,698.4z"/>
</g>
<g enable-background="new    ">
	<path fill="none" stroke="#000000" stroke-width="2.834646e-003" d="M741.4,682.5h2.6l5.8,8.6l0,17l-8.4,0V682.5z M741.5,668.6v-6
		h6.6l25.2,39.4l-0.1,6.1h-6.6L741.5,668.6z M764.8,662.6h8.6l0.1,22.7h-3.7l-4.8-7.4L764.8,662.6z"/>
</g>
<g enable-background="new    ">
	<path fill="none" stroke="#000000" stroke-width="2.834646e-003" d="M838.9,662.6h5.8h0.9h1.2h0.9v2.7v0.7v3.9v0.9v3v4.1v0.7v0.9
		v4.5v0.7v0.9v2.7v0.7v3.9v4.5v0.7v0.9v0.7v1.1v0.7v3.2v1.8v1.8h-5.8h-0.9h-1.2h-0.9V662.6z"/>
</g>
<g enable-background="new    ">
	<path fill="none" stroke="#000000" stroke-width="2.834646e-003" d="M911.4,682.5h2.6l5.8,8.6l0,17l-8.4,0V682.5z M911.6,668.6v-6
		h6.6l25.2,39.4l-0.1,6.1h-6.6L911.6,668.6z M934.9,662.6h8.6l0.1,22.7h-3.7l-4.8-7.4L934.9,662.6z"/>
</g>
<g enable-background="new    ">
	<path fill="none" stroke="#000000" stroke-width="2.834646e-003" d="M997,662.5h5.1h0.8h1h0.8v4.6v0.7v0.9v0.7v1.2v0.7v3.2v7.1h5.1
		h0.8h1h0.7v2.7v0.7v3.9h-5.1h-0.8h-1h-0.8v2.7v0.7v3.9v0.9v3v4.1v0.7v3.2h-5.1h-0.8h-1H997V662.5z M1012.3,700.6h8.4h0.8h4.6h0.8
		h1.2l0.1,5.2v2.2h-5.1h-0.8h-0.9l-0.8,0l-1.3,0h-2.9h-4V700.6z M1012.3,662.5h8.6h0.7h4.6h0.8h1v5.2v1.9h-1.8h-2h-4.3h-1h-1h-1h-1
		h-3.5V662.5z"/>
</g>
<g enable-background="new    ">
	<path fill="none" stroke="#000000" stroke-width="2.834646e-003" d="M230.7,756h3.5h0.7h4.2h1h1h1h1h2.7h4.5h1h1.5h1.2h1.5h1.7
		l6.2,0.1v7.4h-32.8V756z M243.4,769.4h4.6h1h0.8h1v2.6v0.7v3.7v0.9v0.9v0.9v0.9v2.4v3.9v0.9v1.3v1.1v1.3v3.7v1.3v1.5v1.3v1.5v1.3
		h-4.6h-1h-0.8h-1V769.4z"/>
</g>
<g enable-background="new    ">
	<path fill="none" stroke="#000000" stroke-width="2.834646e-003" d="M324.6,781.3l3.5,7.8l-3.1,12.6h-5.7l-4.7-45.6l6.8,0
		L324.6,781.3z M335.9,801.5h6.8l1.7-10.7l-5-3l-6.9-31.8H329l-1.2,9L335.9,801.5z M348.9,756.1l-3,23.6h-1.7l-2.1-3l-2-8l1.5-12.7
		L348.9,756.1z"/>
</g>
<g enable-background="new    ">
	<path fill="none" stroke="#000000" stroke-width="2.834646e-003" d="M401.7,756h5.1h0.8h1h0.8v4.6v0.7v0.9v0.7v1.2v0.7v3.2v7.1h5.1
		h0.8h1h0.7v2.7v0.7v3.9h-5.1h-0.8h-1h-0.8v2.7v0.7v3.9v0.9v3v4.1v0.7v3.2h-5.1h-0.8h-1h-0.8V756z M417,794.1h8.4h0.8h4.6h0.8h1.2
		l0.1,5.2v2.2h-5.1h-0.8H426l-0.8,0l-1.3,0H421h-4V794.1z M417.1,756h8.6h0.7h4.6h0.8h1v5.2v1.9H431h-2h-4.3h-1h-1h-1h-1h-3.5V756z"
		/>
</g>
<g enable-background="new    ">
	<path fill="none" stroke="#000000" stroke-width="2.834646e-003" d="M486.6,756.1h5h0.8h1h0.8v2.7v0.7v3.9v0.9v0.9v0.9v0.9v2.5v4.1
		v0.9v1.4v1.1v1.4v1.6v1.4v1.6v7.1v0.7v0.7v1.6v1.6v1.8v4.6v0.7h-5h-0.8h-1h-0.7V756.1z M500.6,793.3h3.1h0.8h4.3h1h2.8h4.3h1v8.3
		h-17.1L500.6,793.3z"/>
</g>
<g enable-background="new    ">
	<path fill="none" stroke="#000000" stroke-width="2.834646e-003" d="M583.4,801.5L571.5,756h8.2l11.8,45.6H583.4z M595.1,756h8
		l-7.4,28.5h-1.6l-3.4-11.5L595.1,756z"/>
</g>
<g enable-background="new    ">
	<path fill="none" stroke="#000000" stroke-width="2.834646e-003" d="M656.8,756h5.1h0.8h1h0.8v4.6v0.7v0.9v0.7v1.2v0.7v3.2v7.1h5.1
		h0.8h1h0.7v2.7v0.7v3.9H667h-0.8h-1h-0.8v2.7v0.7v3.9v0.9v3v4.1v0.7v3.2h-5.1h-0.8h-1h-0.8V756z M672.1,794.1h8.4h0.8h4.6h0.8h1.2
		l0.1,5.2v2.2h-5.1h-0.8h-0.9l-0.8,0l-1.3,0h-2.9h-4V794.1z M672.2,756h8.6h0.7h4.6h0.8h1v5.2v1.9h-1.8h-2h-4.3h-1h-1h-1h-1h-3.5
		V756z"/>
</g>
<g enable-background="new    ">
	<path fill="none" stroke="#000000" stroke-width="2.834646e-003" d="M742.4,755.9h7.9v2.7v0.7v3.9v0.9v3v4.1v0.7v3.2h9.3v6.9h-6h-1
		h-0.8h-1h-0.7v7.1v0.7v4.1v0.7v4.6v0.7v0.9v0.9H745h-0.8h-1h-0.7V755.9z M756.5,755.9h3.3h0.8h4.8h1.1h3.6h1.4h1.1l1.4,0v4.5v0.9
		v0.7v0.9h-1.9h-2.3h-4.8h-1.1h-3.6h-1.4h-1.1h-1.4V755.9z"/>
</g>
<g enable-background="new    ">
	<path fill="none" stroke="#000000" stroke-width="2.834646e-003" d="M838.9,756.1h5.8h0.9h1.2h0.9v2.7v0.7v3.9v0.9v3v4.1v0.7v0.9
		v4.5v0.7v0.9v2.7v0.7v3.9v4.5v0.7v0.9v0.7v1.1v0.7v3.2v1.8v1.8h-5.8h-0.9h-1.2h-0.9V756.1z"/>
</g>
<g enable-background="new    ">
	<path fill="none" stroke="#000000" stroke-width="2.834646e-003" d="M923.5,801.5L911.6,756h8.2l11.8,45.6H923.5z M935.2,756h8
		l-7.4,28.5h-1.6l-3.4-11.5L935.2,756z"/>
</g>
<g enable-background="new    ">
	<path fill="none" stroke="#000000" stroke-width="2.834646e-003" d="M997,756h5.1h0.8h1h0.8v4.6v0.7v0.9v0.7v1.2v0.7v3.2v7.1h5.1
		h0.8h1h0.7v2.7v0.7v3.9h-5.1h-0.8h-1h-0.8v2.7v0.7v3.9v0.9v3v4.1v0.7v3.2h-5.1h-0.8h-1H997V756z M1012.3,794.1h8.4h0.8h4.6h0.8h1.2
		l0.1,5.2v2.2h-5.1h-0.8h-0.9l-0.8,0l-1.3,0h-2.9h-4V794.1z M1012.3,756h8.6h0.7h4.6h0.8h1v5.2v1.9h-1.8h-2h-4.3h-1h-1h-1h-1h-3.5
		V756z"/>
</g>
<g enable-background="new    ">
	<path fill="none" stroke="#000000" stroke-width="2.834646e-003" d="M234,875.5v-6.9h26v6.9H234z"/>
</g>
<g enable-background="new    ">
	<path fill="none" stroke="#000000" stroke-width="2.834646e-003" d="M319,875.5v-6.9h26v6.9H319z"/>
</g>
<g enable-background="new    ">
	<path fill="none" stroke="#000000" stroke-width="2.834646e-003" d="M414.5,849.6l-0.1,7.2c-4.1,0.8-6.3,3.6-6.6,8.4l0,14.7
		c-0.1,4.3,2,7.1,6.3,8.3v6.9c-8.2-0.7-12.4-5.8-12.9-15.6v-14.6C401.4,856.3,405.8,851.3,414.5,849.6z M419.6,849.7
		c8.8,1.8,13.3,7.2,13.3,16v13.7c-0.1,9.5-4.6,14.7-13.5,15.8l-0.1-6.9c4-0.7,6.4-3,7-7l0-16c0-4.8-2.2-7.7-6.8-8.6L419.6,849.7z"/>
</g>
<g enable-background="new    ">
	<path fill="none" stroke="#000000" stroke-width="2.834646e-003" d="M498.5,850l2.2-0.3v4.2v1v0.8v0.7v0.8
		c-4.4,0.7-6.6,5.9-6.6,15.4c-0.1,9.8,2,15,6.2,15.3l0,6.5l0,0.8c-9.8-1.7-14.4-8.5-13.7-20.4C486.2,859.9,490.2,851.6,498.5,850z
		 M511.2,877.9h7c0.4,9.3-2.9,14.8-9.7,16.7l-2.1,0.5v-7.3C509.7,886.5,511.3,883.2,511.2,877.9z M506.4,849.6
		c7.9,1,11.8,6.7,11.5,17.3h-6.6c0-5.9-1.7-9.1-4.9-9.6L506.4,849.6z"/>
</g>
<g enable-background="new    ">
	<path fill="none" stroke="#000000" stroke-width="2.834646e-003" d="M571.6,849.7h5h0.8h1h0.8v2.7v0.7v3.9v0.9v0.9v0.9v0.9v2.5v4.1
		v0.9v1.4v1.1v1.4v1.6v1.4v1.6v7.1v0.7v0.7v1.6v1.6v1.8v4.6v0.7h-5h-0.8h-1h-0.7V849.7z M585.6,886.9h3.1h0.8h4.3h1h2.8h4.3h1v8.3
		h-17.1L585.6,886.9z"/>
</g>
<g enable-background="new    ">
	<path fill="none" stroke="#000000" stroke-width="2.834646e-003" d="M669.6,849.6l-0.1,7.2c-4.1,0.8-6.3,3.6-6.6,8.4l0,14.7
		c-0.1,4.3,2,7.1,6.3,8.3v6.9c-8.2-0.7-12.4-5.8-12.9-15.6v-14.6C656.5,856.3,660.9,851.3,669.6,849.6z M674.7,849.7
		c8.8,1.8,13.3,7.2,13.3,16v13.7c-0.1,9.5-4.6,14.7-13.5,15.8l-0.1-6.9c4-0.7,6.4-3,7-7l0-16c0-4.8-2.2-7.7-6.8-8.6L674.7,849.7z"/>
</g>
<g enable-background="new    ">
	<path fill="none" stroke="#000000" stroke-width="2.834646e-003" d="M753.6,850l2.2-0.3v4.2v1v0.8v0.7v0.8
		c-4.4,0.7-6.6,5.9-6.6,15.4c-0.1,9.8,2,15,6.2,15.3l0,6.5l0,0.8c-9.8-1.7-14.4-8.5-13.7-20.4C741.4,859.9,745.3,851.6,753.6,850z
		 M766.3,877.9h7c0.4,9.3-2.9,14.8-9.7,16.7l-2.1,0.5v-7.3C764.8,886.5,766.4,883.2,766.3,877.9z M761.6,849.6
		c7.9,1,11.8,6.7,11.5,17.3h-6.6c0-5.9-1.7-9.1-4.9-9.6L761.6,849.6z"/>
</g>
<g enable-background="new    ">
	<path fill="none" stroke="#000000" stroke-width="2.834646e-003" d="M827.1,849.6h4.9h0.8h1h0.7v2.7v0.7v3.8v0.9v0.9v0.9v0.9v2.5v4
		v0.9v1.3v1.1v1.3v3.8v1.4v1.6v1.3v1.6v1.3v1.6v4.5v0.7v0.9v0.7v1.1v2.5v0.9h-4.9h-0.8h-1h-0.7V849.6z M849.3,849.6h7.6l-8.7,16.7
		l0.2,2l9.2,26.7H850l-9.3-25.2v-5.1L849.3,849.6z"/>
</g>
<g enable-background="new    ">
	<path fill="none" stroke="#000000" stroke-width="2.834646e-003" d="M914.3,875.5v-6.9h26v6.9H914.3z"/>
</g>
<g enable-background="new    ">
	<path fill="none" stroke="#000000" stroke-width="2.834646e-003" d="M999.3,875.5v-6.9h26v6.9H999.3z"/>
</g>
</svg>
